<svg id="Capa_1" enable-background="new 0 0 512 512" height="512" viewBox="0 0 512 512" width="512" xmlns="http://www.w3.org/2000/svg" xmlns:xlink="http://www.w3.org/1999/xlink"><linearGradient id="SVGID_1_" gradientUnits="userSpaceOnUse" x1="256" x2="256" y1="512" y2="0"><stop offset="0" stop-color="#5558ff"/><stop offset="1" stop-color="#00c0ff"/></linearGradient><linearGradient id="SVGID_2_" gradientUnits="userSpaceOnUse" x1="226" x2="226" y1="330" y2="60"><stop offset="0" stop-color="#addcff"/><stop offset=".5028" stop-color="#eaf6ff"/><stop offset="1" stop-color="#eaf6ff"/></linearGradient><g><g><g><path d="m479.418 308.291-58.447-116.895c-1.934-105.864-88.652-191.396-194.971-191.396-107.519 0-195 87.48-195 195 0 79.16 23.965 119.092 47.139 157.72 22.031 36.738 42.861 73.44 42.861 144.28 0 8.291 6.709 15 15 15h165c8.291 0 15-6.709 15-15v-59.7l87.891 12.554c9.087 1.341 17.109-5.822 17.109-14.854v-105h45c5.186 0 10.02-2.695 12.773-7.119 2.725-4.424 2.96-9.946.645-14.59z" fill="url(#SVGID_1_)"/></g></g><g><g><path d="m226 60c-74.399 0-135 60.599-135 135 0 74.399 60.6 135 135 135s135-60.601 135-135c0-74.401-60.601-135-135-135zm15 135c0 3.9-1.5 7.8-4.5 10.499l-42.3 42.6c-6.512 5.864-15.412 5.299-21.301 0-5.7-5.999-5.7-15.298 0-21.299l38.101-38.101v-53.699c0-8.401 6.599-15 15-15s15 6.599 15 15z" fill="url(#SVGID_2_)"/></g></g></g></svg>